<svg viewBox="0 0 1200 920" xmlns="http://www.w3.org/2000/svg" font-family="ui-sans-serif, system-ui, -apple-system, 'Segoe UI', 'PingFang SC', 'Microsoft YaHei', sans-serif">
  <defs>
    <marker id="arrow" viewBox="0 0 10 10" refX="9" refY="5" markerWidth="7" markerHeight="7" orient="auto-start-reverse">
      <path d="M 0 0 L 10 5 L 0 10 z" fill="#64748b"/>
    </marker>
    <marker id="rust-arrow" viewBox="0 0 10 10" refX="9" refY="5" markerWidth="7" markerHeight="7" orient="auto-start-reverse">
      <path d="M 0 0 L 10 5 L 0 10 z" fill="#d97706"/>
    </marker>
  </defs>

  <!-- self-contained light card: readable on both GitHub light & dark themes -->
  <rect x="0" y="0" width="1200" height="920" rx="18" fill="#ffffff"/>
  <rect x="0.5" y="0.5" width="1199" height="919" rx="18" fill="none" stroke="#dbe3ee"/>

  <!-- header -->
  <text x="48" y="54" font-size="26" font-weight="700" fill="#0f172a">DeepSeek Infra</text>
  <text x="48" y="78" font-size="13.5" fill="#64748b">本地优先的 Agentic AI 基础设施平台 — LLM 网关 · Agent DAG · MCP · A2A · 本地 RAG · 工作区 · 容灾恢复 · 可观测性</text>
  <rect x="1070" y="34" width="82" height="28" rx="14" fill="#2563eb"/>
  <text x="1111" y="53" font-size="13" font-weight="600" fill="#ffffff" text-anchor="middle">v4.7.4</text>

  <!-- clients layer -->
  <rect x="48" y="98" width="1104" height="68" rx="10" fill="#f8fafc" stroke="#e2e8f0"/>
  <text x="64" y="115" font-size="9.5" letter-spacing="1.5" fill="#94a3b8">客户端 · REACT 前端 &amp; 标准协议接入</text>
  <g font-size="11.5" fill="#334155" text-anchor="middle">
    <rect x="64" y="122" width="138" height="32" rx="7" fill="#ffffff" stroke="#cbd5e1"/>
    <text x="133" y="142">React 应用 · /</text>
    <rect x="210" y="122" width="144" height="32" rx="7" fill="#dbeafe" stroke="#60a5fa"/>
    <text x="282" y="142" fill="#1d4ed8" font-weight="600">React 别名 · /ui/</text>
    <rect x="362" y="122" width="140" height="32" rx="7" fill="#ffffff" stroke="#cbd5e1"/>
    <text x="432" y="142">桌面 WebView</text>
    <rect x="510" y="122" width="124" height="32" rx="7" fill="#ffffff" stroke="#cbd5e1"/>
    <text x="572" y="142">Android APK</text>
    <rect x="642" y="122" width="154" height="32" rx="7" fill="#eff6ff" stroke="#93c5fd"/>
    <text x="719" y="142" fill="#1d4ed8">OpenAI SDK → /v1</text>
    <rect x="804" y="122" width="156" height="32" rx="7" fill="#eff6ff" stroke="#93c5fd"/>
    <text x="882" y="142" fill="#1d4ed8">MCP 客户端 → /mcp</text>
    <rect x="968" y="122" width="168" height="32" rx="7" fill="#eff6ff" stroke="#93c5fd"/>
    <text x="1052" y="142" fill="#1d4ed8">A2A 节点 → /a2a</text>
  </g>

  <!-- arrow clients -> runtime -->
  <line x1="600" y1="166" x2="600" y2="190" stroke="#94a3b8" stroke-width="1.5" marker-end="url(#arrow)"/>
  <text x="616" y="183" font-size="10.5" fill="#94a3b8">HTTP · SSE 流式传输 · JSON-RPC 2.0 · 标准 OpenAI / MCP / A2A 协议</text>

  <!-- python default runtime -->
  <rect x="48" y="194" width="760" height="364" rx="12" fill="#eff6ff" stroke="#93c5fd"/>
  <rect x="48" y="194" width="6" height="364" rx="3" fill="#2563eb"/>
  <text x="72" y="222" font-size="17" font-weight="700" fill="#1e40af">Python 默认运行时</text>
  <text x="72" y="240" font-size="11" fill="#3b82f6">FastAPI / ASGI — 权威运行时 · 默认部署：纯 Python · 本地安全沙箱</text>

  <!-- python columns -->
  <g font-size="11.5" fill="#1e3a8a">
    <!-- Col 1: Gateway & Agent -->
    <text x="72" y="266" font-weight="700" fill="#1e40af">网关与 Agent 运行时</text>
    <text x="72" y="288">• 身份认证 · 变异保护 (Mutation Gate)</text>
    <text x="72" y="308">• HTTP / SSE / 流式响应</text>
    <text x="72" y="328">• 策略驱动模型路由器 (Model Router)</text>
    <text x="72" y="348">• Context Engine (前缀缓存优化)</text>
    <text x="72" y="368">• Context Taint 注入防火墙</text>
    <text x="72" y="388">• Agent DAG 编排 (Leader/Worker/Critic)</text>
    <text x="72" y="408">• Agent Runs 事件溯源持久化</text>
    <text x="72" y="428">• A2A Agent 网格 &amp; 任务生命周期</text>
    <text x="72" y="448">• 请求调度队列 · DLQ · Token 预算</text>

    <!-- Col 2: Tools, RAG, Workspace & DR -->
    <text x="360" y="266" font-weight="700" fill="#1e40af">能力与本地数据平面</text>
    <text x="360" y="288">• 真实工具执行 (17+ 本地沙箱工具)</text>
    <text x="360" y="308">• Capability-based Tool Policy 引擎</text>
    <text x="360" y="328">• MCP Server 传输、资源与会话</text>
    <text x="360" y="348">• 本地 RAG (BM25 + 向量混合检索)</text>
    <text x="360" y="368">• 文档解析 · PDF 逐页渲染 · OCR</text>
    <text x="360" y="388">• Workspace Core (Projects / Artifacts)</text>
    <text x="360" y="408">• Automation 自动化引擎 &amp; Browser 控制</text>
    <text x="360" y="428">• Skills 动态沙箱、版本化与评估</text>
    <text x="360" y="448">• Object Set v1 加密容灾与 Merkle 校验</text>
    <text x="360" y="468">• OpenTelemetry 链路追踪 · /metrics 探针</text>
  </g>

  <!-- optional rust sidecar -->
  <rect x="824" y="194" width="328" height="224" rx="12" fill="#fff7ed" stroke="#f59e0b" stroke-dasharray="6 4"/>
  <rect x="824" y="194" width="5" height="224" rx="2.5" fill="#f59e0b"/>
  <text x="844" y="222" font-size="15" font-weight="700" fill="#92400e">可选 Rust 旁车</text>
  <text x="844" y="238" font-size="9.5" fill="#d97706">默认关闭 · 按需确定性委派 · Python 兜底回退</text>
  <g font-size="10.5" fill="#78350f">
    <text x="844" y="260" font-weight="600">网关请求预处理</text>
    <text x="844" y="274" font-size="9" fill="#b45309">POST /gateway/request/prepare</text>
    <text x="844" y="292" font-weight="600">MCP 协议预处理</text>
    <text x="844" y="306" font-size="9" fill="#b45309">POST /mcp/request/prepare</text>
    <text x="844" y="324" font-weight="600">工具策略评估</text>
    <text x="844" y="338" font-size="9" fill="#b45309">POST /policy/{url,path,capability}</text>
    <text x="844" y="356" font-weight="600">RAG 向量排序 · JSON / 紧凑二进制</text>
    <text x="844" y="370" font-size="8.5" fill="#b45309">POST /rag/vectors/rank · POST /rag/vectors/rank-binary</text>
    <text x="844" y="388" font-weight="600">RAG 文档预处理 &amp; 差分分块</text>
    <text x="844" y="402" font-size="8.5" fill="#b45309">POST /rag/documents/prepare · scan-batch · age crypto</text>
  </g>

  <!-- optional stateless mcp plane -->
  <rect x="824" y="428" width="328" height="130" rx="12" fill="#faf5ff" stroke="#a855f7" stroke-dasharray="6 4"/>
  <rect x="824" y="428" width="5" height="130" rx="2.5" fill="#a855f7"/>
  <text x="844" y="452" font-size="14" font-weight="700" fill="#6b21a8">可选 无状态 MCP 执行平面</text>
  <text x="844" y="468" font-size="9.5" fill="#9333ea">独立横向扩展 · TypeScript SDK · 双实例容灾</text>
  <g font-size="10" fill="#581c87">
    <text x="844" y="490">• NGINX 负载均衡 (:8010) → 双 MCP 实例</text>
    <text x="844" y="508">• Redis AOF (任务租约、Fencing 令牌、幂等与日志)</text>
    <text x="844" y="526">• 专属代码检索 · pytest 执行 · OpenTelemetry 导出</text>
    <text x="844" y="544">• 生成栅栏逻辑备份 Contributor 协议支持</text>
  </g>

  <!-- delegation arrows -->
  <text x="792" y="296" font-size="9.5" fill="#b45309" text-anchor="end">按需确定性委派</text>
  <line x1="770" y1="302" x2="824" y2="302" stroke="#d97706" stroke-width="1.5" stroke-dasharray="5 3" marker-end="url(#rust-arrow)"/>
  <line x1="824" y1="350" x2="770" y2="350" stroke="#d97706" stroke-width="1.5" stroke-dasharray="5 3" marker-end="url(#rust-arrow)"/>
  <text x="792" y="344" font-size="9.5" fill="#b45309" text-anchor="end">校验通过的结果</text>

  <!-- fallback badge -->
  <rect x="520" y="508" width="272" height="40" rx="6" fill="#fff7ed" stroke="#fdba74"/>
  <text x="782" y="524" font-size="9" fill="#b45309" text-anchor="end">超时 · 不可用 · 格式错误 · 结果分歧</text>
  <text x="782" y="539" font-size="10" fill="#92400e" text-anchor="end" font-weight="600">Python 回退始终权威</text>

  <!-- arrow runtime -> data -->
  <line x1="428" y1="558" x2="428" y2="578" stroke="#94a3b8" stroke-width="1.5" marker-end="url(#arrow)"/>

  <!-- local data layer -->
  <rect x="48" y="578" width="1104" height="172" rx="10" fill="#f8fafc" stroke="#e2e8f0"/>
  <text x="64" y="596" font-size="9.5" letter-spacing="1.5" fill="#94a3b8">本地数据与持久化层 · PYTHON 所有 (零外部泄露 · 本地私有存储)</text>
  <g font-size="11" fill="#334155" text-anchor="middle">
    <!-- Row 1 -->
    <rect x="64" y="608" width="260" height="44" rx="8" fill="#ecfdf5" stroke="#a7f3d0"/>
    <text x="194" y="625" fill="#047857" font-weight="600">SQLite 向量 RAG (.local-rag)</text>
    <text x="194" y="641" font-size="9.5" fill="#059669">BM25 混合检索 · 增量切片 · 引用溯源</text>

    <rect x="336" y="608" width="260" height="44" rx="8" fill="#ffffff" stroke="#cbd5e1"/>
    <text x="466" y="625" font-weight="600">长期记忆 (.memory)</text>
    <text x="466" y="641" font-size="9.5" fill="#64748b">作用域隔离 · 经人工确认 · 冲突检测</text>

    <rect x="608" y="608" width="260" height="44" rx="8" fill="#ffffff" stroke="#cbd5e1"/>
    <text x="738" y="625" font-weight="600">语义缓存 (.semantic-cache)</text>
    <text x="738" y="641" font-size="9.5" fill="#64748b">JSON + f64le BLOB 向量双写 · 质量门控</text>

    <rect x="880" y="608" width="260" height="44" rx="8" fill="#ffffff" stroke="#cbd5e1"/>
    <text x="1010" y="625" font-weight="600">工作区与产物 (.projects)</text>
    <text x="1010" y="641" font-size="9.5" fill="#64748b">Project 2.0 · Artifact Hub · 导出归档</text>

    <!-- Row 2 -->
    <rect x="64" y="660" width="260" height="44" rx="8" fill="#ffffff" stroke="#cbd5e1"/>
    <text x="194" y="677" font-weight="600">Agent 运行日志 (.agent-runs / .a2a)</text>
    <text x="194" y="693" font-size="9.5" fill="#64748b">事件溯源日志 · 节点状态机 · 断点续跑</text>

    <rect x="336" y="660" width="260" height="44" rx="8" fill="#eff6ff" stroke="#93c5fd"/>
    <text x="466" y="677" fill="#1d4ed8" font-weight="600">加密容灾备份 (.backups)</text>
    <text x="466" y="693" font-size="9.5" fill="#2563eb">Object Set v1 · Age 密文 · 投影式恢复</text>

    <rect x="608" y="660" width="260" height="44" rx="8" fill="#ffffff" stroke="#cbd5e1"/>
    <text x="738" y="677" font-weight="600">全链路追踪与审计 (.traces / .tool-audit)</text>
    <text x="738" y="693" font-size="9.5" fill="#64748b">OpenTelemetry Span 树 · 安全审计日志</text>

    <rect x="880" y="660" width="260" height="44" rx="8" fill="#ffffff" stroke="#cbd5e1"/>
    <text x="1010" y="677" font-weight="600">调度队列与预算 (.request-queue / .budget)</text>
    <text x="1010" y="693" font-size="9.5" fill="#64748b">优先级请求队列 · DLQ · 每日费用账本</text>
  </g>
  <text x="600" y="736" font-size="11" fill="#047857" text-anchor="middle" font-weight="600">持久化始终由 Python 所有 · Rust 不读取 SQLite · 敏感凭据不出沙箱</text>

  <!-- external boundary -->
  <line x1="48" y1="768" x2="1152" y2="768" stroke="#cbd5e1" stroke-dasharray="6 6"/>
  <text x="48" y="796" font-size="12" fill="#64748b">数据默认不出端 · 只有显式调用跨过这条线 (严格私密保护)</text>
  <g font-size="12" text-anchor="middle">
    <rect x="660" y="780" width="154" height="32" rx="8" fill="#eff6ff" stroke="#93c5fd"/>
    <text x="737" y="801" fill="#1d4ed8">DeepSeek API (Pro/Flash)</text>
    <rect x="826" y="780" width="144" height="32" rx="8" fill="#eff6ff" stroke="#93c5fd"/>
    <text x="898" y="801" fill="#1d4ed8">Tavily 联网搜索</text>
    <rect x="982" y="780" width="170" height="32" rx="8" fill="#ffffff" stroke="#cbd5e1"/>
    <text x="1067" y="801" fill="#334155">Ollama / 端侧边缘推理</text>
  </g>

  <!-- footer -->
  <text x="600" y="890" font-size="10" fill="#94a3b8" text-anchor="middle">v4.7.4：持久化 Fleet SLO · Evidence 闭环自治运维 · 冻结协议格式</text>
</svg>
