<svg viewBox="0 0 1200 960" xmlns="http://www.w3.org/2000/svg" font-family="ui-sans-serif, system-ui, -apple-system, 'Segoe UI', 'PingFang SC', 'Microsoft YaHei', sans-serif">
  <defs>
    <marker id="arrow" viewBox="0 0 10 10" refX="9" refY="5" markerWidth="7" markerHeight="7" orient="auto-start-reverse">
      <path d="M 0 0 L 10 5 L 0 10 z" fill="#64748b"/>
    </marker>
    <marker id="rust-arrow" viewBox="0 0 10 10" refX="9" refY="5" markerWidth="7" markerHeight="7" orient="auto-start-reverse">
      <path d="M 0 0 L 10 5 L 0 10 z" fill="#d97706"/>
    </marker>
  </defs>

  <!-- self-contained light card: readable on both GitHub light & dark themes -->
  <rect x="0" y="0" width="1200" height="960" rx="18" fill="#ffffff"/>
  <rect x="0.5" y="0.5" width="1199" height="959" rx="18" fill="none" stroke="#dbe3ee"/>

  <!-- header -->
  <text x="48" y="58" font-size="26" font-weight="700" fill="#0f172a">DeepSeek Infra</text>
  <text x="48" y="84" font-size="14" fill="#64748b">Local-first Agentic AI Infrastructure Platform — LLM Gateway · Agent DAG · MCP · A2A · Local RAG · Observability</text>
  <rect x="1070" y="38" width="82" height="28" rx="14" fill="#2563eb"/>
  <text x="1111" y="57" font-size="13" font-weight="600" fill="#ffffff" text-anchor="middle">v4.0.1</text>

  <!-- clients layer -->
  <rect x="48" y="110" width="1104" height="74" rx="10" fill="#f8fafc" stroke="#e2e8f0"/>
  <text x="64" y="128" font-size="10" letter-spacing="2" fill="#94a3b8">CLIENTS</text>
  <g font-size="13" fill="#334155" text-anchor="middle">
    <rect x="64" y="136" width="166" height="34" rx="8" fill="#ffffff" stroke="#cbd5e1"/>
    <text x="147" y="158">Web UI / PWA</text>
    <rect x="242" y="136" width="166" height="34" rx="8" fill="#ffffff" stroke="#cbd5e1"/>
    <text x="325" y="158">Desktop WebView</text>
    <rect x="420" y="136" width="166" height="34" rx="8" fill="#ffffff" stroke="#cbd5e1"/>
    <text x="503" y="158">Android APK</text>
    <rect x="598" y="136" width="178" height="34" rx="8" fill="#eff6ff" stroke="#93c5fd"/>
    <text x="687" y="158" fill="#1d4ed8">OpenAI SDK → /v1</text>
    <rect x="788" y="136" width="172" height="34" rx="8" fill="#eff6ff" stroke="#93c5fd"/>
    <text x="874" y="158" fill="#1d4ed8">MCP Client → /mcp</text>
    <rect x="972" y="136" width="164" height="34" rx="8" fill="#eff6ff" stroke="#93c5fd"/>
    <text x="1054" y="158" fill="#1d4ed8">A2A Peer → /a2a</text>
  </g>

  <!-- arrow clients -> runtime -->
  <line x1="600" y1="184" x2="600" y2="206" stroke="#94a3b8" stroke-width="1.5" marker-end="url(#arrow)"/>
  <text x="616" y="200" font-size="11" fill="#94a3b8">HTTP · SSE · streaming · JSON-RPC 2.0</text>

  <!-- python default runtime -->
  <rect x="48" y="210" width="760" height="300" rx="12" fill="#eff6ff" stroke="#93c5fd"/>
  <rect x="48" y="210" width="6" height="300" rx="3" fill="#2563eb"/>
  <text x="72" y="240" font-size="18" font-weight="700" fill="#1e40af">Python Default Runtime</text>
  <text x="72" y="262" font-size="12" fill="#3b82f6">FastAPI / ASGI — Default deployment: Python-only</text>
  <g font-size="12" fill="#1e3a8a">
    <text x="72" y="288">• authentication</text>
    <text x="72" y="310">• HTTP / SSE / streaming</text>
    <text x="72" y="332">• provider routing</text>
    <text x="72" y="354">• retry / backoff</text>
    <text x="72" y="376">• Agent DAG orchestration</text>
    <text x="72" y="398">• MCP transport and sessions</text>
    <text x="420" y="288">• real tool execution</text>
    <text x="420" y="310">• file parsing and OCR</text>
    <text x="420" y="332">• embeddings</text>
    <text x="420" y="354">• persistence and indexes</text>
    <text x="420" y="376">• observability and business state</text>
  </g>

  <!-- optional rust sidecar -->
  <rect x="832" y="210" width="320" height="300" rx="12" fill="#fff7ed" stroke="#f59e0b" stroke-dasharray="6 4"/>
  <rect x="832" y="210" width="6" height="300" rx="3" fill="#f59e0b"/>
  <text x="856" y="240" font-size="17" font-weight="700" fill="#92400e">Optional Rust Sidecar</text>
  <text x="856" y="262" font-size="11" fill="#d97706">Disabled by default — opt-in delegates with Python fallback</text>
  <g font-size="11" fill="#78350f">
    <text x="856" y="292" font-weight="600">Gateway Request Preparation</text>
    <text x="856" y="306" fill="#b45309">POST /gateway/request/prepare</text>
    <text x="856" y="328" font-weight="600">MCP Protocol Preparation</text>
    <text x="856" y="342" fill="#b45309">POST /mcp/request/prepare</text>
    <text x="856" y="364" font-weight="600">Tool Policy Evaluation</text>
    <text x="856" y="378" fill="#b45309">POST /policy/{url,path,capability}</text>
    <text x="856" y="400" font-weight="600">RAG Vector Ranking · JSON / compact binary</text>
    <text x="856" y="414" font-size="9" fill="#b45309">POST /rag/vectors/rank · POST /rag/vectors/rank-binary</text>
    <text x="856" y="436" font-weight="600">RAG Document Preparation</text>
    <text x="856" y="450" fill="#b45309">POST /rag/documents/prepare</text>
    <text x="856" y="474" font-weight="600">Release Observability</text>
    <text x="856" y="488" fill="#b45309">GET /metrics · pooled connections · layered timing</text>
  </g>

  <!-- delegation arrows -->
  <line x1="808" y1="330" x2="832" y2="330" stroke="#d97706" stroke-width="1.5" stroke-dasharray="5 3" marker-end="url(#rust-arrow)"/>
  <text x="820" y="322" font-size="10" fill="#d97706" text-anchor="middle">optional deterministic delegation</text>
  <line x1="832" y1="390" x2="808" y2="390" stroke="#d97706" stroke-width="1.5" stroke-dasharray="5 3" marker-end="url(#rust-arrow)"/>
  <text x="820" y="382" font-size="10" fill="#d97706" text-anchor="middle">validated result</text>
  <text x="820" y="406" font-size="10" fill="#d97706" text-anchor="middle">timeout / unavailable / malformed / divergent</text>
  <text x="820" y="420" font-size="10" fill="#d97706" text-anchor="middle">→ Python fallback</text>

  <!-- arrow runtime -> data -->
  <line x1="428" y1="510" x2="428" y2="536" stroke="#94a3b8" stroke-width="1.5" marker-end="url(#arrow)"/>

  <!-- local data layer -->
  <rect x="48" y="540" width="1104" height="120" rx="10" fill="#f8fafc" stroke="#e2e8f0"/>
  <text x="64" y="558" font-size="10" letter-spacing="2" fill="#94a3b8">LOCAL DATA &amp; OBSERVABILITY · PYTHON-OWNED</text>
  <g font-size="11.5" fill="#334155" text-anchor="middle">
    <rect x="64" y="572" width="148" height="48" rx="8" fill="#ecfdf5" stroke="#a7f3d0"/>
    <text x="138" y="590" fill="#047857" font-weight="600">SQLite Vector RAG</text>
    <text x="138" y="606" font-size="10" fill="#059669">BM25 hybrid · citations</text>
    <rect x="252" y="572" width="148" height="48" rx="8" fill="#ffffff" stroke="#cbd5e1"/>
    <text x="326" y="590">Long-term Memory</text>
    <text x="326" y="606" font-size="10" fill="#94a3b8">scoped · confirmed</text>
    <rect x="440" y="572" width="148" height="48" rx="8" fill="#ffffff" stroke="#cbd5e1"/>
    <text x="514" y="590">Semantic Cache · JSON + f64le BLOB</text>
    <text x="514" y="606" font-size="10" fill="#94a3b8">scoped · quality-gated</text>
    <rect x="628" y="572" width="148" height="48" rx="8" fill="#ffffff" stroke="#cbd5e1"/>
    <text x="702" y="590">Trace Runs · Span Tree</text>
    <text x="702" y="606" font-size="10" fill="#94a3b8">waterfall · /metrics</text>
    <rect x="816" y="572" width="148" height="48" rx="8" fill="#ffffff" stroke="#cbd5e1"/>
    <text x="890" y="590">Request Queue · DLQ</text>
    <text x="890" y="606" font-size="10" fill="#94a3b8">retry · backpressure</text>
    <rect x="1004" y="572" width="148" height="48" rx="8" fill="#ffffff" stroke="#cbd5e1"/>
    <text x="1078" y="590">Budget</text>
    <text x="1078" y="606" font-size="10" fill="#94a3b8">daily ledger</text>
  </g>
  <text x="600" y="648" font-size="11" fill="#047857" text-anchor="middle" font-weight="600">Persistence remains Python-owned · Rust never reads SQLite</text>

  <!-- external boundary -->
  <line x1="48" y1="720" x2="1152" y2="720" stroke="#cbd5e1" stroke-dasharray="6 6"/>
  <text x="48" y="750" font-size="12" fill="#64748b">数据默认不出端 · 只有显式调用跨过这条线</text>
  <g font-size="12.5" text-anchor="middle">
    <rect x="690" y="732" width="150" height="32" rx="8" fill="#eff6ff" stroke="#93c5fd"/>
    <text x="765" y="753" fill="#1d4ed8">DeepSeek API</text>
    <rect x="852" y="732" width="140" height="32" rx="8" fill="#eff6ff" stroke="#93c5fd"/>
    <text x="922" y="753" fill="#1d4ed8">Tavily Search</text>
    <rect x="1004" y="732" width="148" height="32" rx="8" fill="#ffffff" stroke="#cbd5e1"/>
    <text x="1078" y="753" fill="#334155">Ollama / Edge inference</text>
  </g>

  <!-- footer -->
  <text x="600" y="820" font-size="10" fill="#94a3b8" text-anchor="middle">4.0.1: frontend-hardened Python-first hybrid · Rust-primary disabled</text>
</svg>
